HIERARCHY
ROOT Hips
{
	OFFSET 0.000000 0.000000 0.000000
	CHANNELS 6 Xposition Yposition Zposition Xrotation Yrotation Zrotation
	JOINT LeftUpLeg_virtual
	{
		OFFSET 0.000000 0.000000 0.000000
		CHANNELS 3 Xrotation Yrotation Zrotation
		JOINT LeftUpLeg
		{
			OFFSET 13.026900 -6.336304 -1.092800
			CHANNELS 3 Xrotation Yrotation Zrotation
			JOINT LeftLeg
			{
				OFFSET 0.524474 -46.096886 9.782700
				CHANNELS 3 Xrotation Yrotation Zrotation
				JOINT LeftFoot
				{
					OFFSET -0.524474 -53.427422 -12.948200
					CHANNELS 3 Xrotation Yrotation Zrotation
					JOINT LeftToeBase
					{
						OFFSET 0.192200 -14.009700 16.364100
						CHANNELS 3 Xrotation Yrotation Zrotation
						JOINT LeftToe_End
						{
							OFFSET -1.784700 -0.561700 9.474800
							CHANNELS 3 Xrotation Yrotation Zrotation
							End Site
							{
								OFFSET 0 0 0
							}
						}
					}
				}
			}
		}
	}
	JOINT RightUpLeg_virtual
	{
		OFFSET 0.000000 0.000000 0.000000
		CHANNELS 3 Xrotation Yrotation Zrotation
		JOINT RightUpLeg
		{
			OFFSET -12.883000 -6.336304 -1.092800
			CHANNELS 3 Xrotation Yrotation Zrotation
			JOINT RightLeg
			{
				OFFSET -0.524587 -46.096825 9.782800
				CHANNELS 3 Xrotation Yrotation Zrotation
				JOINT RightFoot
				{
					OFFSET 0.524587 -53.427383 -12.948300
					CHANNELS 3 Xrotation Yrotation Zrotation
					JOINT RightToeBase
					{
						OFFSET -0.192200 -14.009700 16.364100
						CHANNELS 3 Xrotation Yrotation Zrotation
						JOINT RightToe_End
						{
							OFFSET 1.784700 -0.561700 9.474800
							CHANNELS 3 Xrotation Yrotation Zrotation
							End Site
							{
								OFFSET 0 0 0
							}
						}
					}
				}
			}
		}
	}
	JOINT Spine_virtual
	{
		OFFSET 0.000000 0.000000 0.000000
		CHANNELS 3 Xrotation Yrotation Zrotation
		JOINT Spine
		{
			OFFSET 0.072000 7.257294 -0.789700
			CHANNELS 3 Xrotation Yrotation Zrotation
			JOINT Spine1
			{
				OFFSET 0.000000 12.508769 -0.658067
				CHANNELS 3 Xrotation Yrotation Zrotation
				JOINT Spine1_split
				{
					OFFSET 0.000000 12.508769 -0.658067
					CHANNELS 3 Xrotation Yrotation Zrotation
					JOINT Spine2
					{
						OFFSET 0.000000 12.508769 -0.658067
						CHANNELS 3 Xrotation Yrotation Zrotation
						JOINT Neck_virtual
						{
							OFFSET 0.000000 0.000000 0.000000
							CHANNELS 3 Xrotation Yrotation Zrotation
							JOINT Neck
							{
								OFFSET 0.000000 14.033295 7.520400
								CHANNELS 3 Xrotation Yrotation Zrotation
								JOINT Head
								{
									OFFSET 0.000000 8.198502 5.703100
									CHANNELS 3 Xrotation Yrotation Zrotation
									JOINT HeadTop_End
									{
										OFFSET 0.000000 17.760803 13.332701
										CHANNELS 3 Xrotation Yrotation Zrotation
										End Site
										{
											OFFSET 0 0 0
										}
									}
								}
							}
						}
						JOINT LeftShoulder_virtual
						{
							OFFSET 0.000000 0.000000 0.000000
							CHANNELS 3 Xrotation Yrotation Zrotation
							JOINT LeftShoulder
							{
								OFFSET 6.292450 5.785301 -0.669000
								CHANNELS 3 Xrotation Yrotation Zrotation
								JOINT LeftShoulder_split
								{
									OFFSET 6.292450 5.785301 -0.669000
									CHANNELS 3 Xrotation Yrotation Zrotation
									JOINT LeftArm
									{
										OFFSET 13.907140 -6.093903 1.965100
										CHANNELS 3 Xrotation Yrotation Zrotation
										JOINT LeftForeArm
										{
											OFFSET 34.140198 0.000000 0.000000
											CHANNELS 3 Xrotation Yrotation Zrotation
											JOINT LeftHand
											{
												OFFSET 40.960209 0.000000 0.000000
												CHANNELS 3 Xrotation Yrotation Zrotation
												End Site
												{
													OFFSET 0 0 0
												}
											}
										}
									}
								}
							}
						}
						JOINT RightShoulder_virtual
						{
							OFFSET 0.000000 0.000000 0.000000
							CHANNELS 3 Xrotation Yrotation Zrotation
							JOINT RightShoulder
							{
								OFFSET -6.292450 5.785301 -0.669000
								CHANNELS 3 Xrotation Yrotation Zrotation
								JOINT RightShoulder_split
								{
									OFFSET -6.292450 5.785301 -0.669000
									CHANNELS 3 Xrotation Yrotation Zrotation
									JOINT RightArm
									{
										OFFSET -13.907140 -6.093903 1.965100
										CHANNELS 3 Xrotation Yrotation Zrotation
										JOINT RightForeArm
										{
											OFFSET -34.140198 0.000000 0.000000
											CHANNELS 3 Xrotation Yrotation Zrotation
											JOINT RightHand
											{
												OFFSET -40.960209 0.000000 0.000000
												CHANNELS 3 Xrotation Yrotation Zrotation
												End Site
												{
													OFFSET 0 0 0
												}
											}
										}
									}
								}
							}
						}
					}
				}
			}
		}
	}
}
MOTION
Frames: 4
Frame Time: 0.03333333
-9.398802 104.303291 48.280727 0.000000 0.000000 0.000000 26.791770 7.100274 -18.325715 -79.046804 -6.211640 13.411378 27.469231 7.733884 -3.719491 26.127026 -4.585588 5.996289 -2.193526 0.034956 -0.290070 0.000000 0.000000 0.000000 26.918445 9.726069 -19.627973 10.104871 -24.847028 -12.687572 63.175719 6.377517 -1.107246 22.334667 -1.741996 13.054284 12.657610 0.197234 1.349306 0.000000 0.000000 0.000000 26.515189 8.131425 -20.121027 6.731110 12.793674 -9.378902 12.789352 11.232400 -6.953309 1.729672 0.509528 0.688008 0.000000 0.000000 0.000000 12.323196 10.825840 -7.483355 -10.598955 -6.986787 7.931875 -26.917403 -32.183168 18.869431 0.000000 0.000000 0.000000 11.602167 11.383204 -7.511252 -0.064632 6.135095 4.757319 -4.120229 -0.300776 -0.863980 32.646679 -41.572489 -12.745610 0.031550 -29.638154 -1.575013 0.000000 0.000000 0.000000 11.877840 10.911178 -7.933163 5.672662 13.977847 -5.437099 -2.254143 5.311611 -1.137459 -19.542508 56.093694 34.241487 -2.316559 39.881584 0.713869 0.000000 0.000000 0.000000 
-9.964419 103.859093 50.008835 0.000000 0.000000 0.000000 24.850914 7.694337 -17.444027 -79.072465 -6.061234 14.056365 31.819164 7.013471 -4.996822 23.537219 -4.797554 6.650339 -1.904375 0.080985 -0.317165 0.000000 0.000000 0.000000 24.831701 9.883080 -18.621401 5.454613 -24.636359 -12.309891 61.457407 6.330429 -1.144296 21.450214 -2.003145 10.436251 12.409507 0.189879 1.475862 0.000000 0.000000 0.000000 24.487985 8.269265 -19.194032 6.599181 11.644033 -9.528969 13.192987 10.407939 -7.110911 1.376273 0.729408 0.659455 0.000000 0.000000 0.000000 12.586958 10.088288 -7.664194 -10.964862 -6.700030 7.497376 -27.139723 -32.171687 19.295824 0.000000 0.000000 0.000000 11.564218 10.683293 -7.637022 0.039440 5.490876 5.663587 -4.057744 -1.205908 -1.569732 30.852320 -43.974609 -5.285848 0.468487 -27.694759 -1.159142 0.000000 0.000000 0.000000 12.068014 10.212985 -7.986663 5.519802 13.531852 -4.608851 -1.742857 4.204185 -1.051818 -18.971460 52.435536 27.832145 -2.242864 38.266353 0.904536 0.000000 0.000000 0.000000 
-10.383764 103.823746 51.920891 0.000000 0.000000 0.000000 23.023518 8.065160 -16.603242 -78.483368 -5.426470 14.664930 35.427368 6.226604 -5.901053 20.902479 -5.018614 7.218632 -1.504965 0.188433 -0.396278 0.000000 0.000000 0.000000 22.783745 10.087765 -17.796637 1.034081 -24.598476 -11.993377 58.863363 6.295402 -1.133924 20.648386 -1.905421 7.370524 11.697517 0.242614 1.797088 0.000000 0.000000 0.000000 22.406519 8.326583 -18.376609 6.530420 10.434769 -9.703807 13.581386 9.296026 -7.243152 1.243741 0.744627 0.601662 0.000000 0.000000 0.000000 12.893944 9.058139 -7.833006 -11.320013 -6.438168 7.074360 -26.825974 -31.826165 19.898064 0.000000 0.000000 0.000000 11.661834 9.658138 -7.743690 0.162289 4.761942 6.385990 -3.923603 -1.941700 -2.162194 27.442829 -47.133623 0.532897 0.862728 -24.982855 -0.597465 0.000000 0.000000 0.000000 12.420527 9.223715 -8.039555 5.558634 13.254765 -4.832727 -1.369538 3.069936 -1.173033 -18.595762 49.586688 22.544189 -2.197924 35.523008 1.091693 0.000000 0.000000 0.000000 
-10.611132 104.104141 53.965332 0.000000 0.000000 0.000000 21.244969 8.293489 -15.826769 -77.135034 -4.342320 15.282388 38.509255 5.406110 -6.347210 18.308966 -5.177493 7.586180 -1.636491 0.327879 -0.492286 0.000000 0.000000 0.000000 20.765421 10.298471 -17.141410 -3.370012 -24.715876 -12.040233 55.710513 6.520878 -1.271308 20.676567 -1.124497 5.043470 8.936387 0.265480 2.310285 0.000000 0.000000 0.000000 20.308302 8.371391 -17.651398 6.543566 8.959514 -9.942443 13.979759 7.809701 -7.281969 1.255347 0.796318 0.496094 0.000000 0.000000 0.000000 13.215630 7.628903 -7.882303 -11.577779 -6.141530 6.691620 -25.888276 -30.865085 20.724293 0.000000 0.000000 0.000000 11.935289 8.205520 -7.779155 0.276630 4.019159 6.852265 -3.851731 -2.234091 -2.452389 22.020537 -50.610465 4.084304 1.079873 -21.514592 -0.000424 0.000000 0.000000 0.000000 12.888273 7.825001 -8.006051 5.754466 13.032014 -6.157185 -1.087168 2.241214 -1.493597 -17.888875 47.487536 17.760392 -2.171428 32.898091 1.194975 0.000000 0.000000 0.000000 
